<svg width="36" height="35" viewBox="0 0 36 35" fill="none" xmlns="http://www.w3.org/2000/svg">
<path d="M18 35.0001C15.8383 33.0007 14.4738 30.1496 14.4738 26.9795C14.4738 23.8094 15.8383 20.9578 18 18.9585H8.52081C4.09206 18.9585 0.500235 22.5503 0.500235 26.9795C0.500235 31.4083 4.09206 35.0001 8.52081 35.0001H18Z" fill="#FABD05"/>
<path d="M35.5 35.0001C33.3383 33.0007 31.9738 30.1496 31.9738 26.9795C31.9738 23.8094 33.3383 20.9578 35.5 18.9585H26.0208C21.5934 18.9585 18.0015 22.5503 18.0015 26.9795C18.0015 31.4083 21.5934 35.0001 26.0208 35.0001H35.5Z" fill="white"/>
<path d="M18 16.0411C15.8383 14.0413 14.4738 11.1906 14.4738 8.02053C14.4738 4.85045 15.8383 1.99886 18 -0.000488281H8.52081C4.09206 -0.000488281 0.500235 3.5909 0.500235 8.02009C0.500235 12.4493 4.09206 16.0407 8.52081 16.0407L18 16.0411Z" fill="white"/>
<path d="M35.5 16.0411C33.3383 14.0413 31.9738 11.1906 31.9738 8.02053C31.9738 4.85045 33.3383 1.99886 35.5 -0.000488281H26.0208C21.5934 -0.000488281 18.0015 3.5909 18.0015 8.02009C18.0015 12.4493 21.5934 16.0407 26.0208 16.0407L35.5 16.0411Z" fill="#FABD05"/>
</svg>
